# xmcd
#
# Track frame offsets:
#	150
#	24482
#	41254
#	63857
#	77662
#	105920
#	124731
#	142534
#	167546
#	190309
#
# Disc length: 2860 seconds
# Revision: 0
# Processed by: cddbd v1.5.2PL0 Copyright (c) Steve Scherf et al.
# Submitted via: dBpowerAMP V12.0
#
DISCID=6b0b2a0a
DTITLE=Hot Tuna - Hot Tuna [RCA] (L)
DYEAR=1970
DGENRE=Blues
TTITLE0=Hesitation Blues
TTITLE1=How Long Blues
TTITLE2=Uncle Sam Blues
TTITLE3=Don't You Leave Me Here
TTITLE4=Death Don't Have No Mercy
TTITLE5=Know You Rider
TTITLE6=Candy Man
TTITLE7=True Religion
TTITLE8=Belly Shadow
TTITLE9=Come Back Baby
EXTD=
EXTT0=
EXTT1=
EXTT2=
EXTT3=
EXTT4=
EXTT5=
EXTT6=
EXTT7=
EXTT8=
EXTT9=
PLAYORDER=
